<?xml version="1.0" encoding="UTF-8"?>
<svg fill="none" viewBox="0 0 20 20" xmlns="http://www.w3.org/2000/svg">
<path d="m19.088 5.5099l-4.6051-4.6052c-0.2633-0.25936-0.618-0.40475-0.9875-0.40475s-0.7242 0.14539-0.9875 0.40475l-5.8023 5.7936-3.1459 3.1459-2.6478 2.6565c-0.13052 0.1292-0.23413 0.283-0.30484 0.4525s-0.10712 0.3513-0.10712 0.535c0 0.1836 0.036408 0.3655 0.10712 0.535 0.070711 0.1694 0.17432 0.3232 0.30484 0.4524l4.6052 4.6052c0.1292 0.1305 0.28299 0.2342 0.45248 0.3049s0.35132 0.1071 0.53497 0.1071 0.36548-0.0364 0.53497-0.1071 0.32328-0.1744 0.45248-0.3049l11.596-11.596c0.1306-0.1292 0.2342-0.28299 0.3049-0.45248 0.0707-0.1695 0.1071-0.35132 0.1071-0.53497s-0.0364-0.36548-0.1071-0.53497-0.1743-0.32329-0.3049-0.45248zm-0.9874 0.98745l-11.596 11.596-4.6052-4.6052 2.1584-2.1584 2.2982 2.3069c0.13362 0.1292 0.31222 0.2015 0.49809 0.2015s0.36447-0.0723 0.49809-0.2015c0.13128-0.1325 0.20492-0.3115 0.20492-0.4981 0-0.1865-0.07364-0.3655-0.20492-0.498l-2.307-2.2983 2.1584-2.1584 2.2982 2.307c0.13362 0.1292 0.31222 0.2014 0.49809 0.2014 0.1859 0 0.3645-0.0722 0.4981-0.2014 0.1313-0.1326 0.2049-0.3116 0.2049-0.49811 0-0.18655-0.0736-0.36556-0.2049-0.4981l-2.307-2.2982 2.1584-2.1584 2.2983 2.307c0.1336 0.1292 0.3122 0.20143 0.4981 0.20143 0.1858 0 0.3644-0.07223 0.4981-0.20143 0.1312-0.13254 0.2049-0.31155 0.2049-0.49809 0-0.18655-0.0737-0.36556-0.2049-0.4981l-2.307-2.2982 2.1584-2.1584 4.6052 4.6052z" fill="#8D8D8D"/>
</svg>
